<svg width="348" height="75" viewBox="0 0 348 75" fill="none" xmlns="http://www.w3.org/2000/svg">
<g filter="url(#filter0_b_0_136)">
<rect y="0.564209" width="348" height="73.8462" rx="12" fill="white" fill-opacity="0.2"/>
</g>
<path d="M54.68 54.7049C53.6453 54.7049 52.76 54.4649 52.024 53.9849C51.288 53.4943 50.7173 52.8169 50.312 51.9529C49.9173 51.0783 49.72 50.0649 49.72 48.9129C49.72 47.7716 49.9173 46.7636 50.312 45.8889C50.7173 45.0143 51.288 44.3369 52.024 43.8569C52.76 43.3663 53.6453 43.1209 54.68 43.1209C55.7147 43.1209 56.6 43.3663 57.336 43.8569C58.072 44.3369 58.6373 45.0143 59.032 45.8889C59.4373 46.7636 59.64 47.7716 59.64 48.9129C59.64 50.0649 59.4373 51.0783 59.032 51.9529C58.6373 52.8169 58.072 53.4943 57.336 53.9849C56.6 54.4649 55.7147 54.7049 54.68 54.7049ZM54.68 52.8649C55.5227 52.8649 56.2107 52.5129 56.744 51.8089C57.2773 51.1049 57.544 50.1396 57.544 48.9129C57.544 47.6863 57.2773 46.7209 56.744 46.0169C56.2107 45.3129 55.5227 44.9609 54.68 44.9609C53.8267 44.9609 53.1333 45.3129 52.6 46.0169C52.0773 46.7209 51.816 47.6863 51.816 48.9129C51.816 50.1396 52.0773 51.1049 52.6 51.8089C53.1333 52.5129 53.8267 52.8649 54.68 52.8649ZM61.6388 54.6249C61.2654 54.6249 60.9561 54.5076 60.7108 54.2729C60.4761 54.0383 60.3588 53.7556 60.3588 53.4249C60.3588 53.0836 60.4761 52.7956 60.7108 52.5609C60.9561 52.3263 61.2654 52.2089 61.6388 52.2089C62.0121 52.2089 62.3161 52.3263 62.5508 52.5609C62.7961 52.7956 62.9188 53.0836 62.9188 53.4249C62.9188 53.7556 62.7961 54.0383 62.5508 54.2729C62.3161 54.5076 62.0121 54.6249 61.6388 54.6249ZM64.3785 54.5129V53.0249C65.0612 52.4596 65.7225 51.8996 66.3625 51.3449C67.0132 50.7903 67.5892 50.2409 68.0905 49.6969C68.6025 49.1529 69.0078 48.6249 69.3065 48.1129C69.6158 47.5903 69.7705 47.0836 69.7705 46.5929C69.7705 46.1343 69.6425 45.7289 69.3865 45.3769C69.1412 45.0249 68.7305 44.8489 68.1545 44.8489C67.5678 44.8489 67.1252 45.0409 66.8265 45.4249C66.5278 45.8089 66.3785 46.2729 66.3785 46.8169H64.3945C64.4158 45.9956 64.5972 45.3129 64.9385 44.7689C65.2798 44.2143 65.7332 43.8036 66.2985 43.5369C66.8638 43.2596 67.4985 43.1209 68.2025 43.1209C69.3438 43.1209 70.2292 43.4356 70.8585 44.0649C71.4985 44.6836 71.8185 45.4889 71.8185 46.4809C71.8185 47.0996 71.6745 47.7023 71.3865 48.2889C71.1092 48.8756 70.7412 49.4409 70.2825 49.9849C69.8238 50.5289 69.3278 51.0409 68.7945 51.5209C68.2612 51.9903 67.7438 52.4276 67.2425 52.8329H72.0905V54.5129H64.3785ZM77.8071 54.7049C76.9858 54.7049 76.2765 54.5609 75.6791 54.2729C75.0925 53.9849 74.6285 53.5903 74.2871 53.0889C73.9565 52.5769 73.7645 52.0009 73.7111 51.3609H75.7111C75.8071 51.8196 76.0418 52.2036 76.4151 52.5129C76.7885 52.8116 77.2525 52.9609 77.8071 52.9609C78.4045 52.9609 78.8898 52.7423 79.2631 52.3049C79.6471 51.8676 79.8391 51.3236 79.8391 50.6729C79.8391 50.0009 79.6471 49.4676 79.2631 49.0729C78.8898 48.6783 78.4151 48.4809 77.8391 48.4809C77.3591 48.4809 76.9431 48.5983 76.5911 48.8329C76.2391 49.0676 75.9885 49.3609 75.8391 49.7129H73.8711L74.8311 43.3129H81.0391V45.1049H76.3671L75.8551 47.6969C76.0898 47.4409 76.4098 47.2329 76.8151 47.0729C77.2205 46.9023 77.6738 46.8169 78.1751 46.8169C78.9751 46.8169 79.6418 46.9983 80.1751 47.3609C80.7085 47.7129 81.1138 48.1823 81.3911 48.7689C81.6685 49.3449 81.8071 49.9743 81.8071 50.6569C81.8071 51.4356 81.6365 52.1289 81.2951 52.7369C80.9645 53.3449 80.4951 53.8249 79.8871 54.1769C79.2898 54.5289 78.5965 54.7049 77.8071 54.7049ZM87.5255 54.5129V43.3129H94.8375V44.9609H89.5735V48.0329H94.3575V49.6329H89.5735V52.8649H94.8375V54.5129H87.5255ZM99.3835 54.5129V44.9609H96.1195V43.3129H104.712V44.9609H101.432V54.5129H99.3835ZM106.229 54.5129V43.3129H108.277V47.9689H113.301V43.3129H115.349V54.5129H113.301V49.6329H108.277V54.5129H106.229Z" fill="white"/>
<path d="M223.304 54.5129V45.6489L221.464 46.0809V44.5129L224.168 43.3129H225.432V54.5129H223.304ZM227.332 54.5129V53.0249C228.014 52.4596 228.676 51.8996 229.316 51.3449C229.966 50.7903 230.542 50.2409 231.044 49.6969C231.556 49.1529 231.961 48.6249 232.26 48.1129C232.569 47.5903 232.724 47.0836 232.724 46.5929C232.724 46.1343 232.596 45.7289 232.34 45.3769C232.094 45.0249 231.684 44.8489 231.108 44.8489C230.521 44.8489 230.078 45.0409 229.78 45.4249C229.481 45.8089 229.332 46.2729 229.332 46.8169H227.348C227.369 45.9956 227.55 45.3129 227.892 44.7689C228.233 44.2143 228.686 43.8036 229.252 43.5369C229.817 43.2596 230.452 43.1209 231.156 43.1209C232.297 43.1209 233.182 43.4356 233.812 44.0649C234.452 44.6836 234.772 45.4889 234.772 46.4809C234.772 47.0996 234.628 47.7023 234.34 48.2889C234.062 48.8756 233.694 49.4409 233.236 49.9849C232.777 50.5289 232.281 51.0409 231.748 51.5209C231.214 51.9903 230.697 52.4276 230.196 52.8329H235.044V54.5129H227.332ZM236.76 54.5129V42.9929H238.104V47.9369C238.371 47.4463 238.75 47.0676 239.24 46.8009C239.731 46.5236 240.264 46.3849 240.84 46.3849C241.758 46.3849 242.494 46.6729 243.048 47.2489C243.603 47.8143 243.88 48.6889 243.88 49.8729V54.5129H242.552V50.0169C242.552 48.3636 241.886 47.5369 240.552 47.5369C239.859 47.5369 239.278 47.7876 238.808 48.2889C238.339 48.7796 238.104 49.4836 238.104 50.4009V54.5129H236.76ZM259.489 54.5129V52.4329H253.969V50.8009L259.217 43.3129H261.537V50.6569H263.009V52.4329H261.537V54.5129H259.489ZM256.161 50.6569H259.617V45.5689L256.161 50.6569ZM268.283 54.7049C267.547 54.7049 266.881 54.5769 266.283 54.3209C265.686 54.0543 265.206 53.6489 264.843 53.1049C264.481 52.5609 264.289 51.8783 264.267 51.0569H266.283C266.294 51.6009 266.47 52.0596 266.811 52.4329C267.163 52.7956 267.654 52.9769 268.283 52.9769C268.881 52.9769 269.339 52.8116 269.659 52.4809C269.979 52.1503 270.139 51.7343 270.139 51.2329C270.139 50.6463 269.926 50.2036 269.499 49.9049C269.083 49.5956 268.545 49.4409 267.883 49.4409H267.051V47.7609H267.899C268.443 47.7609 268.897 47.6329 269.259 47.3769C269.622 47.1209 269.803 46.7423 269.803 46.2409C269.803 45.8249 269.665 45.4943 269.387 45.2489C269.121 44.9929 268.747 44.8649 268.267 44.8649C267.745 44.8649 267.334 45.0196 267.035 45.3289C266.747 45.6383 266.587 46.0169 266.555 46.4649H264.555C264.598 45.4303 264.955 44.6143 265.627 44.0169C266.31 43.4196 267.19 43.1209 268.267 43.1209C269.035 43.1209 269.681 43.2596 270.203 43.5369C270.737 43.8036 271.137 44.1609 271.403 44.6089C271.681 45.0569 271.819 45.5529 271.819 46.0969C271.819 46.7263 271.643 47.2596 271.291 47.6969C270.95 48.1236 270.523 48.4116 270.011 48.5609C270.641 48.6889 271.153 48.9983 271.547 49.4889C271.942 49.9689 272.139 50.5769 272.139 51.3129C272.139 51.9316 271.99 52.4969 271.691 53.0089C271.393 53.5209 270.955 53.9316 270.379 54.2409C269.814 54.5503 269.115 54.7049 268.283 54.7049ZM274.167 54.5129V46.5769H275.383L275.479 47.7289C275.735 47.3023 276.076 46.9716 276.503 46.7369C276.929 46.5023 277.409 46.3849 277.943 46.3849C278.572 46.3849 279.111 46.5129 279.559 46.7689C280.017 47.0249 280.369 47.4143 280.615 47.9369C280.892 47.4569 281.271 47.0783 281.751 46.8009C282.241 46.5236 282.769 46.3849 283.335 46.3849C284.284 46.3849 285.041 46.6729 285.607 47.2489C286.172 47.8143 286.455 48.6889 286.455 49.8729V54.5129H285.127V50.0169C285.127 49.1956 284.961 48.5769 284.631 48.1609C284.3 47.7449 283.825 47.5369 283.207 47.5369C282.567 47.5369 282.033 47.7876 281.607 48.2889C281.191 48.7796 280.983 49.4836 280.983 50.4009V54.5129H279.639V50.0169C279.639 49.1956 279.473 48.5769 279.143 48.1609C278.812 47.7449 278.337 47.5369 277.719 47.5369C277.089 47.5369 276.561 47.7876 276.135 48.2889C275.719 48.7796 275.511 49.4836 275.511 50.4009V54.5129H274.167ZM302.052 54.5129V52.4329H296.532V50.8009L301.78 43.3129H304.1V50.6569H305.572V52.4329H304.1V54.5129H302.052ZM298.724 50.6569H302.18V45.5689L298.724 50.6569ZM306.91 54.5129V53.0249C307.592 52.4596 308.254 51.8996 308.894 51.3449C309.544 50.7903 310.12 50.2409 310.622 49.6969C311.134 49.1529 311.539 48.6249 311.838 48.1129C312.147 47.5903 312.302 47.0836 312.302 46.5929C312.302 46.1343 312.174 45.7289 311.918 45.3769C311.672 45.0249 311.262 44.8489 310.686 44.8489C310.099 44.8489 309.656 45.0409 309.358 45.4249C309.059 45.8089 308.91 46.2729 308.91 46.8169H306.926C306.947 45.9956 307.128 45.3129 307.47 44.7689C307.811 44.2143 308.264 43.8036 308.83 43.5369C309.395 43.2596 310.03 43.1209 310.734 43.1209C311.875 43.1209 312.76 43.4356 313.39 44.0649C314.03 44.6836 314.35 45.4889 314.35 46.4809C314.35 47.0996 314.206 47.7023 313.918 48.2889C313.64 48.8756 313.272 49.4409 312.814 49.9849C312.355 50.5289 311.859 51.0409 311.326 51.5209C310.792 51.9903 310.275 52.4276 309.774 52.8329H314.622V54.5129H306.91ZM319.378 54.7049C318.429 54.7049 317.64 54.4649 317.01 53.9849C316.381 53.5049 316.013 52.8543 315.906 52.0329H317.282C317.368 52.4489 317.586 52.8116 317.938 53.1209C318.301 53.4196 318.786 53.5689 319.394 53.5689C319.96 53.5689 320.376 53.4516 320.642 53.2169C320.909 52.9716 321.042 52.6836 321.042 52.3529C321.042 51.8729 320.866 51.5529 320.514 51.3929C320.173 51.2329 319.688 51.0889 319.058 50.9609C318.632 50.8756 318.205 50.7529 317.778 50.5929C317.352 50.4329 316.994 50.2089 316.706 49.9209C316.418 49.6223 316.274 49.2329 316.274 48.7529C316.274 48.0596 316.53 47.4943 317.042 47.0569C317.565 46.6089 318.269 46.3849 319.154 46.3849C319.997 46.3849 320.685 46.5983 321.218 47.0249C321.762 47.4409 322.077 48.0383 322.162 48.8169H320.834C320.781 48.4116 320.605 48.0969 320.306 47.8729C320.018 47.6383 319.629 47.5209 319.138 47.5209C318.658 47.5209 318.285 47.6223 318.018 47.8249C317.762 48.0276 317.634 48.2943 317.634 48.6249C317.634 48.9449 317.8 49.1956 318.13 49.3769C318.472 49.5583 318.93 49.7129 319.506 49.8409C319.997 49.9476 320.461 50.0809 320.898 50.2409C321.346 50.3903 321.709 50.6196 321.986 50.9289C322.274 51.2276 322.418 51.6649 322.418 52.2409C322.429 52.9556 322.157 53.5476 321.602 54.0169C321.058 54.4756 320.317 54.7049 319.378 54.7049Z" fill="white"/>
<path d="M30.596 27.0671C29.764 27.0671 29.044 26.8871 28.436 26.5271C27.836 26.1591 27.372 25.6511 27.044 25.0031C26.716 24.3471 26.552 23.5911 26.552 22.7351C26.552 21.8711 26.716 21.1151 27.044 20.4671C27.372 19.8111 27.836 19.2991 28.436 18.9311C29.044 18.5631 29.764 18.3791 30.596 18.3791C31.58 18.3791 32.384 18.6191 33.008 19.0991C33.632 19.5791 34.028 20.2511 34.196 21.1151H32.78C32.668 20.6271 32.428 20.2391 32.06 19.9511C31.692 19.6631 31.2 19.5191 30.584 19.5191C29.744 19.5191 29.08 19.8071 28.592 20.3831C28.104 20.9511 27.86 21.7351 27.86 22.7351C27.86 23.7271 28.104 24.5071 28.592 25.0751C29.08 25.6431 29.744 25.9271 30.584 25.9271C31.2 25.9271 31.692 25.7911 32.06 25.5191C32.428 25.2471 32.668 24.8751 32.78 24.4031H34.196C34.028 25.2351 33.632 25.8871 33.008 26.3591C32.384 26.8311 31.58 27.0671 30.596 27.0671ZM37.7422 27.0671C37.0222 27.0671 36.4542 26.8431 36.0382 26.3951C35.6302 25.9471 35.4262 25.2791 35.4262 24.3911V20.9711H36.6982V24.2591C36.6982 25.4111 37.1702 25.9871 38.1142 25.9871C38.5862 25.9871 38.9742 25.8191 39.2782 25.4831C39.5822 25.1471 39.7342 24.6671 39.7342 24.0431V20.9711H41.0062V26.9231H39.8782L39.7822 25.8791C39.5982 26.2471 39.3262 26.5391 38.9662 26.7551C38.6142 26.9631 38.2062 27.0671 37.7422 27.0671ZM42.6243 26.9231V20.9711H43.7643L43.8723 22.0991C44.0803 21.7071 44.3683 21.3991 44.7363 21.1751C45.1123 20.9431 45.5643 20.8271 46.0923 20.8271V22.1591H45.7443C45.3923 22.1591 45.0763 22.2191 44.7963 22.3391C44.5243 22.4511 44.3043 22.6471 44.1363 22.9271C43.9763 23.1991 43.8963 23.5791 43.8963 24.0671V26.9231H42.6243ZM47.1829 26.9231V20.9711H48.3229L48.4309 22.0991C48.6389 21.7071 48.9269 21.3991 49.2949 21.1751C49.6709 20.9431 50.1229 20.8271 50.6509 20.8271V22.1591H50.3029C49.9509 22.1591 49.6349 22.2191 49.3549 22.3391C49.0829 22.4511 48.8629 22.6471 48.6949 22.9271C48.5349 23.1991 48.4549 23.5791 48.4549 24.0671V26.9231H47.1829ZM54.3614 27.0671C53.7774 27.0671 53.2574 26.9391 52.8014 26.6831C52.3534 26.4191 52.0014 26.0551 51.7454 25.5911C51.4894 25.1271 51.3614 24.5871 51.3614 23.9711C51.3614 23.3471 51.4854 22.7991 51.7334 22.3271C51.9894 21.8551 52.3414 21.4871 52.7894 21.2231C53.2454 20.9591 53.7734 20.8271 54.3734 20.8271C54.9574 20.8271 55.4654 20.9591 55.8974 21.2231C56.3294 21.4791 56.6654 21.8231 56.9054 22.2551C57.1454 22.6871 57.2654 23.1631 57.2654 23.6831C57.2654 23.7631 57.2614 23.8511 57.2534 23.9471C57.2534 24.0351 57.2494 24.1351 57.2414 24.2471H52.6094C52.6494 24.8231 52.8374 25.2631 53.1734 25.5671C53.5174 25.8631 53.9134 26.0111 54.3614 26.0111C54.7214 26.0111 55.0214 25.9311 55.2614 25.7711C55.5094 25.6031 55.6934 25.3791 55.8134 25.0991H57.0854C56.9254 25.6591 56.6054 26.1271 56.1254 26.5031C55.6534 26.8791 55.0654 27.0671 54.3614 27.0671ZM54.3614 21.8711C53.9374 21.8711 53.5614 21.9991 53.2334 22.2551C52.9054 22.5031 52.7054 22.8791 52.6334 23.3831H55.9934C55.9694 22.9191 55.8054 22.5511 55.5014 22.2791C55.1974 22.0071 54.8174 21.8711 54.3614 21.8711ZM58.5853 26.9231V20.9711H59.7133L59.8093 22.0151C59.9933 21.6471 60.2613 21.3591 60.6133 21.1511C60.9733 20.9351 61.3853 20.8271 61.8493 20.8271C62.5693 20.8271 63.1333 21.0511 63.5413 21.4991C63.9573 21.9471 64.1653 22.6151 64.1653 23.5031V26.9231H62.9053V23.6351C62.9053 22.4831 62.4333 21.9071 61.4893 21.9071C61.0173 21.9071 60.6253 22.0751 60.3133 22.4111C60.0093 22.7471 59.8573 23.2271 59.8573 23.8511V26.9231H58.5853ZM68.1594 26.9231C67.5754 26.9231 67.1114 26.7831 66.7674 26.5031C66.4234 26.2151 66.2514 25.7071 66.2514 24.9791V22.0391H65.2314V20.9711H66.2514L66.4074 19.4591H67.5234V20.9711H69.2034V22.0391H67.5234V24.9791C67.5234 25.3071 67.5914 25.5351 67.7274 25.6631C67.8714 25.7831 68.1154 25.8431 68.4594 25.8431H69.1434V26.9231H68.1594ZM73.5864 26.9231V18.5231H76.7544C77.6264 18.5231 78.2864 18.7271 78.7344 19.1351C79.1824 19.5431 79.4064 20.0551 79.4064 20.6711C79.4064 21.2071 79.2624 21.6351 78.9744 21.9551C78.6864 22.2671 78.3384 22.4791 77.9304 22.5911C78.2504 22.6551 78.5344 22.7831 78.7824 22.9751C79.0384 23.1671 79.2384 23.4071 79.3824 23.6951C79.5264 23.9831 79.5984 24.2951 79.5984 24.6311C79.5984 25.0631 79.4904 25.4551 79.2744 25.8071C79.0664 26.1511 78.7584 26.4231 78.3504 26.6231C77.9424 26.8231 77.4424 26.9231 76.8504 26.9231H73.5864ZM74.8584 22.1231H76.5984C77.0864 22.1231 77.4584 22.0111 77.7144 21.7871C77.9704 21.5551 78.0984 21.2391 78.0984 20.8391C78.0984 20.4471 77.9704 20.1351 77.7144 19.9031C77.4664 19.6711 77.0864 19.5551 76.5744 19.5551H74.8584V22.1231ZM74.8584 25.8791H76.6824C77.1944 25.8791 77.5904 25.7591 77.8704 25.5191C78.1584 25.2791 78.3024 24.9431 78.3024 24.5111C78.3024 24.0791 78.1544 23.7391 77.8584 23.4911C77.5624 23.2351 77.1624 23.1071 76.6584 23.1071H74.8584V25.8791ZM81.6646 19.8431C81.4246 19.8431 81.2246 19.7711 81.0646 19.6271C80.9126 19.4751 80.8366 19.2871 80.8366 19.0631C80.8366 18.8391 80.9126 18.6551 81.0646 18.5111C81.2246 18.3591 81.4246 18.2831 81.6646 18.2831C81.9046 18.2831 82.1006 18.3591 82.2526 18.5111C82.4126 18.6551 82.4926 18.8391 82.4926 19.0631C82.4926 19.2871 82.4126 19.4751 82.2526 19.6271C82.1006 19.7711 81.9046 19.8431 81.6646 19.8431ZM81.0286 26.9231V20.9711H82.3006V26.9231H81.0286ZM86.6918 27.0671C86.1158 27.0671 85.6078 26.9311 85.1678 26.6591C84.7278 26.3871 84.3838 26.0151 84.1358 25.5431C83.8878 25.0711 83.7638 24.5351 83.7638 23.9351C83.7638 23.3351 83.8878 22.8031 84.1358 22.3391C84.3838 21.8671 84.7278 21.4991 85.1678 21.2351C85.6158 20.9631 86.1278 20.8271 86.7038 20.8271C87.1758 20.8271 87.5878 20.9191 87.9398 21.1031C88.2998 21.2871 88.5798 21.5471 88.7798 21.8831V18.2831H90.0518V26.9231H88.9118L88.7798 25.9991C88.5878 26.2791 88.3238 26.5271 87.9878 26.7431C87.6518 26.9591 87.2198 27.0671 86.6918 27.0671ZM86.9198 25.9631C87.4638 25.9631 87.9078 25.7751 88.2518 25.3991C88.6038 25.0231 88.7798 24.5391 88.7798 23.9471C88.7798 23.3471 88.6038 22.8631 88.2518 22.4951C87.9078 22.1191 87.4638 21.9311 86.9198 21.9311C86.3758 21.9311 85.9278 22.1191 85.5758 22.4951C85.2238 22.8631 85.0478 23.3471 85.0478 23.9471C85.0478 24.3391 85.1278 24.6871 85.2878 24.9911C85.4478 25.2951 85.6678 25.5351 85.9478 25.7111C86.2358 25.8791 86.5598 25.9631 86.9198 25.9631Z" fill="white"/>
<path d="M221.852 26.9231V18.5231H227.192V19.5551H223.124V22.1711H226.832V23.1791H223.124V25.8911H227.192V26.9231H221.852ZM228.659 26.9231V20.9711H229.787L229.883 22.0151C230.067 21.6471 230.335 21.3591 230.687 21.1511C231.047 20.9351 231.459 20.8271 231.923 20.8271C232.643 20.8271 233.207 21.0511 233.615 21.4991C234.031 21.9471 234.239 22.6151 234.239 23.5031V26.9231H232.979V23.6351C232.979 22.4831 232.507 21.9071 231.563 21.9071C231.091 21.9071 230.699 22.0751 230.387 22.4111C230.083 22.7471 229.931 23.2271 229.931 23.8511V26.9231H228.659ZM238.45 27.0671C237.874 27.0671 237.366 26.9311 236.926 26.6591C236.486 26.3871 236.142 26.0151 235.894 25.5431C235.646 25.0711 235.522 24.5351 235.522 23.9351C235.522 23.3351 235.646 22.8031 235.894 22.3391C236.142 21.8671 236.486 21.4991 236.926 21.2351C237.374 20.9631 237.886 20.8271 238.462 20.8271C238.934 20.8271 239.346 20.9191 239.698 21.1031C240.058 21.2871 240.338 21.5471 240.538 21.8831V18.2831H241.81V26.9231H240.67L240.538 25.9991C240.346 26.2791 240.082 26.5271 239.746 26.7431C239.41 26.9591 238.978 27.0671 238.45 27.0671ZM238.678 25.9631C239.222 25.9631 239.666 25.7751 240.01 25.3991C240.362 25.0231 240.538 24.5391 240.538 23.9471C240.538 23.3471 240.362 22.8631 240.01 22.4951C239.666 22.1191 239.222 21.9311 238.678 21.9311C238.134 21.9311 237.686 22.1191 237.334 22.4951C236.982 22.8631 236.806 23.3471 236.806 23.9471C236.806 24.3391 236.886 24.6871 237.046 24.9911C237.206 25.2951 237.426 25.5351 237.706 25.7111C237.994 25.8791 238.318 25.9631 238.678 25.9631ZM245.789 27.0671C245.037 27.0671 244.417 26.8831 243.929 26.5151C243.441 26.1471 243.161 25.6591 243.089 25.0511H244.373C244.437 25.3231 244.589 25.5591 244.829 25.7591C245.069 25.9511 245.385 26.0471 245.777 26.0471C246.161 26.0471 246.441 25.9671 246.617 25.8071C246.793 25.6471 246.881 25.4631 246.881 25.2551C246.881 24.9511 246.757 24.7471 246.509 24.6431C246.269 24.5311 245.933 24.4311 245.501 24.3431C245.165 24.2711 244.829 24.1751 244.493 24.0551C244.165 23.9351 243.889 23.7671 243.665 23.5511C243.449 23.3271 243.341 23.0271 243.341 22.6511C243.341 22.1311 243.541 21.6991 243.941 21.3551C244.341 21.0031 244.901 20.8271 245.621 20.8271C246.285 20.8271 246.821 20.9871 247.229 21.3071C247.645 21.6271 247.889 22.0791 247.961 22.6631H246.737C246.697 22.4071 246.577 22.2071 246.377 22.0631C246.185 21.9191 245.925 21.8471 245.597 21.8471C245.277 21.8471 245.029 21.9151 244.853 22.0511C244.677 22.1791 244.589 22.3471 244.589 22.5551C244.589 22.7631 244.709 22.9271 244.949 23.0471C245.197 23.1671 245.521 23.2751 245.921 23.3711C246.321 23.4591 246.689 23.5631 247.025 23.6831C247.369 23.7951 247.645 23.9631 247.853 24.1871C248.061 24.4111 248.165 24.7391 248.165 25.1711C248.173 25.7151 247.961 26.1671 247.529 26.5271C247.105 26.8871 246.525 27.0671 245.789 27.0671ZM253.297 19.8431C253.057 19.8431 252.857 19.7711 252.697 19.6271C252.545 19.4751 252.469 19.2871 252.469 19.0631C252.469 18.8391 252.545 18.6551 252.697 18.5111C252.857 18.3591 253.057 18.2831 253.297 18.2831C253.537 18.2831 253.733 18.3591 253.885 18.5111C254.045 18.6551 254.125 18.8391 254.125 19.0631C254.125 19.2871 254.045 19.4751 253.885 19.6271C253.733 19.7711 253.537 19.8431 253.297 19.8431ZM252.661 26.9231V20.9711H253.933V26.9231H252.661ZM255.613 26.9231V20.9711H256.741L256.837 22.0151C257.021 21.6471 257.289 21.3591 257.641 21.1511C258.001 20.9351 258.413 20.8271 258.877 20.8271C259.597 20.8271 260.161 21.0511 260.569 21.4991C260.985 21.9471 261.193 22.6151 261.193 23.5031V26.9231H259.933V23.6351C259.933 22.4831 259.461 21.9071 258.517 21.9071C258.045 21.9071 257.653 22.0751 257.341 22.4111C257.037 22.7471 256.885 23.2271 256.885 23.8511V26.9231H255.613Z" fill="white"/>
<g clip-path="url(#clip0_0_136)">
<path d="M38.671 49.3796L32.5001 53.2463L26.3251 49.3796L32.5001 38.5129L38.671 49.3796ZM32.5001 54.4879L26.3251 50.6213L32.5001 59.8463L38.6751 50.6213L32.5001 54.4879Z" fill="white"/>
</g>
<defs>
<filter id="filter0_b_0_136" x="-50" y="-49.4358" width="448" height="173.846" filterUnits="userSpaceOnUse" color-interpolation-filters="sRGB">
<feFlood flood-opacity="0" result="BackgroundImageFix"/>
<feGaussianBlur in="BackgroundImageFix" stdDeviation="25"/>
<feComposite in2="SourceAlpha" operator="in" result="effect1_backgroundBlur_0_136"/>
<feBlend mode="normal" in="SourceGraphic" in2="effect1_backgroundBlur_0_136" result="shape"/>
</filter>
<clipPath id="clip0_0_136">
<rect width="13" height="21.3333" fill="white" transform="translate(26 38.5129)"/>
</clipPath>
</defs>
</svg>
