<svg width="62" height="16" viewBox="0 0 62 16" fill="none" xmlns="http://www.w3.org/2000/svg">
<g clip-path="url(#clip0_1307_13)">
<path d="M9.24746 8.15574L4.80473 10.9395L0.35907 8.15574L4.80473 0.332336L9.24746 8.15574ZM4.80473 11.8335L0.35907 9.04968L4.80473 15.6912L9.25038 9.04968L4.80473 11.8335Z" fill="#00AC4F"/>
</g>
<path d="M18.8642 12.1434C18.1547 12.1434 17.5477 11.9788 17.043 11.6497C16.5384 11.3133 16.1471 10.8488 15.8692 10.2564C15.5986 9.6567 15.4633 8.9619 15.4633 8.17201C15.4633 7.38944 15.5986 6.6983 15.8692 6.09857C16.1471 5.49885 16.5384 5.03442 17.043 4.70531C17.5477 4.36888 18.1547 4.20066 18.8642 4.20066C19.5736 4.20066 20.1806 4.36888 20.6853 4.70531C21.1899 5.03442 21.5776 5.49885 21.8482 6.09857C22.1261 6.6983 22.265 7.38944 22.265 8.17201C22.265 8.9619 22.1261 9.6567 21.8482 10.2564C21.5776 10.8488 21.1899 11.3133 20.6853 11.6497C20.1806 11.9788 19.5736 12.1434 18.8642 12.1434ZM18.8642 10.8817C19.4419 10.8817 19.9137 10.6404 20.2794 10.1577C20.6451 9.67498 20.8279 9.01309 20.8279 8.17201C20.8279 7.33093 20.6451 6.66904 20.2794 6.18634C19.9137 5.70363 19.4419 5.46228 18.8642 5.46228C18.2791 5.46228 17.8037 5.70363 17.438 6.18634C17.0796 6.66904 16.9004 7.33093 16.9004 8.17201C16.9004 9.01309 17.0796 9.67498 17.438 10.1577C17.8037 10.6404 18.2791 10.8817 18.8642 10.8817ZM23.6355 12.0885C23.3795 12.0885 23.1674 12.0081 22.9992 11.8472C22.8383 11.6863 22.7579 11.4924 22.7579 11.2657C22.7579 11.0317 22.8383 10.8342 22.9992 10.6733C23.1674 10.5124 23.3795 10.432 23.6355 10.432C23.8915 10.432 24.0999 10.5124 24.2608 10.6733C24.4291 10.8342 24.5132 11.0317 24.5132 11.2657C24.5132 11.4924 24.4291 11.6863 24.2608 11.8472C24.0999 12.0081 23.8915 12.0885 23.6355 12.0885ZM25.5141 12.0117V10.9915C25.9821 10.6038 26.4356 10.2199 26.8744 9.83954C27.3205 9.45923 27.7155 9.08257 28.0592 8.70957C28.4103 8.33657 28.6882 7.97454 28.893 7.62348C29.1051 7.26511 29.2111 6.91771 29.2111 6.58128C29.2111 6.26679 29.1234 5.98887 28.9478 5.74751C28.7796 5.50616 28.4981 5.38548 28.1031 5.38548C27.7009 5.38548 27.3973 5.51713 27.1926 5.78042C26.9878 6.04372 26.8854 6.36187 26.8854 6.73487H25.525C25.5397 6.17171 25.664 5.70363 25.898 5.33063C26.1321 4.95032 26.4429 4.66874 26.8305 4.4859C27.2182 4.29574 27.6533 4.20066 28.136 4.20066C28.9186 4.20066 29.5256 4.41641 29.9571 4.84792C30.396 5.27212 30.6154 5.82431 30.6154 6.50448C30.6154 6.92868 30.5166 7.3419 30.3192 7.74416C30.129 8.14641 29.8767 8.53404 29.5622 8.90704C29.2477 9.28004 28.9076 9.6311 28.5419 9.96022C28.1762 10.282 27.8215 10.5819 27.4778 10.8598H30.8019V12.0117H25.5141ZM34.7215 12.1434C34.1584 12.1434 33.672 12.0446 33.2625 11.8472C32.8602 11.6497 32.5421 11.3791 32.308 11.0353C32.0813 10.6843 31.9496 10.2893 31.9131 9.85051H33.2844C33.3502 10.165 33.5111 10.4283 33.7671 10.6404C34.0231 10.8452 34.3412 10.9476 34.7215 10.9476C35.1311 10.9476 35.4639 10.7976 35.7199 10.4978C35.9832 10.1979 36.1148 9.82491 36.1148 9.37878C36.1148 8.91801 35.9832 8.55233 35.7199 8.28172C35.4639 8.01111 35.1384 7.87581 34.7435 7.87581C34.4144 7.87581 34.1291 7.95626 33.8878 8.11716C33.6464 8.27806 33.4746 8.47919 33.3722 8.72054H32.0228L32.681 4.33231H36.9376V5.56101H33.7342L33.3831 7.33825C33.544 7.16272 33.7635 7.0201 34.0414 6.9104C34.3193 6.79338 34.6301 6.73487 34.9739 6.73487C35.5224 6.73487 35.9795 6.8592 36.3452 7.10787C36.7109 7.34922 36.9888 7.67102 37.179 8.07328C37.3691 8.46822 37.4642 8.89973 37.4642 9.36781C37.4642 9.90171 37.3472 10.3771 37.1131 10.794C36.8864 11.2109 36.5646 11.54 36.1477 11.7813C35.7382 12.0227 35.2628 12.1434 34.7215 12.1434ZM41.3851 12.0117V4.33231H46.3986V5.46228H42.7893V7.56863H46.0695V8.66569H42.7893V10.8817H46.3986V12.0117H41.3851ZM49.5156 12.0117V5.46228H47.2776V4.33231H53.1688V5.46228H50.9199V12.0117H49.5156ZM54.2091 12.0117V4.33231H55.6133V7.52475H59.0581V4.33231H60.4623V12.0117H59.0581V8.66569H55.6133V12.0117H54.2091Z" fill="#00AC4F"/>
<defs>
<clipPath id="clip0_1307_13">
<rect width="9.35928" height="15.3588" fill="white" transform="translate(0.125 0.332336)"/>
</clipPath>
</defs>
</svg>
