<svg width="237" height="22" viewBox="0 0 237 22" fill="none" xmlns="http://www.w3.org/2000/svg">
<path d="M0.644 20.6667L7.812 1.06675H11.844L19.012 20.6667H15.204L13.636 16.1307H5.992L4.396 20.6667H0.644ZM6.972 13.3307H12.656L9.8 5.18275L6.972 13.3307ZM28.2848 21.0027C27.2395 21.0027 26.3248 20.8067 25.5408 20.4147C24.7568 20.0227 24.1221 19.4721 23.6368 18.7627L23.2448 20.6667H20.0528V0.506747H23.6368V8.76675C24.0848 8.15075 24.6728 7.60941 25.4008 7.14275C26.1475 6.67608 27.1088 6.44275 28.2848 6.44275C29.5915 6.44275 30.7581 6.76008 31.7848 7.39475C32.8115 8.02941 33.6235 8.89741 34.2208 9.99875C34.8181 11.1001 35.1168 12.3507 35.1168 13.7507C35.1168 15.1507 34.8181 16.4014 34.2208 17.5027C33.6235 18.5854 32.8115 19.4441 31.7848 20.0787C30.7581 20.6947 29.5915 21.0027 28.2848 21.0027ZM27.5288 17.8667C28.6675 17.8667 29.6101 17.4841 30.3568 16.7187C31.1035 15.9534 31.4768 14.9641 31.4768 13.7507C31.4768 12.5374 31.1035 11.5387 30.3568 10.7547C29.6101 9.97075 28.6675 9.57875 27.5288 9.57875C26.3715 9.57875 25.4195 9.97075 24.6728 10.7547C23.9448 11.5201 23.5808 12.5094 23.5808 13.7227C23.5808 14.9361 23.9448 15.9347 24.6728 16.7187C25.4195 17.4841 26.3715 17.8667 27.5288 17.8667ZM42.6584 21.0027C41.4264 21.0027 40.3438 20.8067 39.4104 20.4147C38.4771 20.0041 37.7304 19.4441 37.1704 18.7347C36.6104 18.0254 36.2744 17.2041 36.1624 16.2707H39.7744C39.8864 16.8121 40.1851 17.2787 40.6704 17.6707C41.1744 18.0441 41.8184 18.2307 42.6024 18.2307C43.3864 18.2307 43.9558 18.0721 44.3104 17.7547C44.6838 17.4374 44.8704 17.0734 44.8704 16.6627C44.8704 16.0654 44.6091 15.6641 44.0864 15.4587C43.5638 15.2347 42.8358 15.0201 41.9024 14.8147C41.3051 14.6841 40.6984 14.5254 40.0824 14.3387C39.4664 14.1521 38.8971 13.9187 38.3744 13.6387C37.8704 13.3401 37.4598 12.9667 37.1424 12.5187C36.8251 12.0521 36.6664 11.4827 36.6664 10.8107C36.6664 9.57875 37.1518 8.54275 38.1224 7.70275C39.1118 6.86275 40.4931 6.44275 42.2664 6.44275C43.9091 6.44275 45.2158 6.82541 46.1864 7.59075C47.1758 8.35608 47.7638 9.41075 47.9504 10.7547H44.5624C44.3571 9.72808 43.5824 9.21475 42.2384 9.21475C41.5664 9.21475 41.0438 9.34541 40.6704 9.60675C40.3158 9.86808 40.1384 10.1947 40.1384 10.5867C40.1384 10.9974 40.4091 11.3241 40.9504 11.5667C41.4918 11.8094 42.2104 12.0334 43.1064 12.2387C44.0771 12.4627 44.9638 12.7147 45.7664 12.9947C46.5878 13.2561 47.2411 13.6574 47.7264 14.1987C48.2118 14.7214 48.4544 15.4774 48.4544 16.4667C48.4731 17.3254 48.2491 18.1001 47.7824 18.7907C47.3158 19.4814 46.6438 20.0227 45.7664 20.4147C44.8891 20.8067 43.8531 21.0027 42.6584 21.0027ZM55.9799 20.6667C54.5239 20.6667 53.3572 20.3121 52.4799 19.6027C51.6025 18.8934 51.1639 17.6334 51.1639 15.8227V9.77475H48.7839V6.77875H51.1639L51.5839 3.05475H54.7479V6.77875H58.4999V9.77475H54.7479V15.8507C54.7479 16.5227 54.8879 16.9894 55.1679 17.2507C55.4665 17.4934 55.9705 17.6147 56.6799 17.6147H58.4159V20.6667H55.9799ZM60.177 20.6667V6.77875H63.369L63.705 9.38275C64.209 8.48675 64.8904 7.77741 65.749 7.25475C66.6264 6.71341 67.653 6.44275 68.829 6.44275V10.2227H67.821C67.037 10.2227 66.337 10.3441 65.721 10.5867C65.105 10.8294 64.6197 11.2494 64.265 11.8467C63.929 12.4441 63.761 13.2747 63.761 14.3387V20.6667H60.177ZM83.8025 21.0027C81.9545 21.0027 80.3398 20.5827 78.9585 19.7427C77.5771 18.9027 76.5038 17.7361 75.7385 16.2427C74.9731 14.7307 74.5905 12.9761 74.5905 10.9787C74.5905 8.96275 74.9825 7.18941 75.7665 5.65875C76.5691 4.10941 77.6985 2.90541 79.1545 2.04675C80.6291 1.16941 82.3745 0.730748 84.3905 0.730748C86.6865 0.730748 88.5905 1.28141 90.1025 2.38275C91.6145 3.48408 92.5945 5.00541 93.0425 6.94675H89.0385C88.7398 6.03208 88.1985 5.32275 87.4145 4.81875C86.6305 4.29608 85.6225 4.03475 84.3905 4.03475C82.4305 4.03475 80.9185 4.66008 79.8545 5.91075C78.7905 7.14275 78.2585 8.84141 78.2585 11.0067C78.2585 13.1721 78.7811 14.8521 79.8265 16.0467C80.8905 17.2227 82.3278 17.8107 84.1385 17.8107C85.9118 17.8107 87.2465 17.3347 88.1425 16.3827C89.0571 15.4121 89.6078 14.1427 89.7945 12.5747H84.8385V9.88675H93.4065V20.6667H90.1025L89.8225 18.0907C89.1878 19.0241 88.3945 19.7427 87.4425 20.2467C86.4905 20.7507 85.2771 21.0027 83.8025 21.0027ZM95.4067 20.6667V6.77875H98.5987L98.9347 9.38275C99.4387 8.48675 100.12 7.77741 100.979 7.25475C101.856 6.71341 102.883 6.44275 104.059 6.44275V10.2227H103.051C102.267 10.2227 101.567 10.3441 100.951 10.5867C100.335 10.8294 99.8494 11.2494 99.4947 11.8467C99.1587 12.4441 98.9907 13.2747 98.9907 14.3387V20.6667H95.4067ZM109.896 21.0027C108.702 21.0027 107.722 20.8161 106.956 20.4427C106.191 20.0507 105.622 19.5374 105.248 18.9027C104.875 18.2681 104.688 17.5681 104.688 16.8027C104.688 15.5147 105.192 14.4694 106.2 13.6667C107.208 12.8641 108.72 12.4627 110.736 12.4627H114.264V12.1267C114.264 11.1747 113.994 10.4747 113.452 10.0267C112.911 9.57875 112.239 9.35475 111.436 9.35475C110.708 9.35475 110.074 9.53208 109.532 9.88675C108.991 10.2227 108.655 10.7267 108.524 11.3987H105.024C105.118 10.3907 105.454 9.51341 106.032 8.76675C106.63 8.02008 107.395 7.45075 108.328 7.05875C109.262 6.64808 110.307 6.44275 111.464 6.44275C113.443 6.44275 115.002 6.93741 116.14 7.92675C117.279 8.91608 117.848 10.3161 117.848 12.1267V20.6667H114.796L114.46 18.4267C114.05 19.1734 113.471 19.7894 112.724 20.2747C111.996 20.7601 111.054 21.0027 109.896 21.0027ZM110.708 18.2027C111.735 18.2027 112.528 17.8667 113.088 17.1947C113.667 16.5227 114.031 15.6921 114.18 14.7027H111.128C110.176 14.7027 109.495 14.8801 109.084 15.2347C108.674 15.5707 108.468 15.9907 108.468 16.4947C108.468 17.0361 108.674 17.4561 109.084 17.7547C109.495 18.0534 110.036 18.2027 110.708 18.2027ZM126.252 21.0027C124.946 21.0027 123.779 20.6854 122.752 20.0507C121.726 19.4161 120.914 18.5481 120.316 17.4467C119.719 16.3454 119.42 15.0947 119.42 13.6947C119.42 12.2947 119.719 11.0534 120.316 9.97075C120.914 8.86941 121.726 8.01075 122.752 7.39475C123.779 6.76008 124.946 6.44275 126.252 6.44275C127.298 6.44275 128.212 6.63875 128.996 7.03075C129.78 7.42275 130.415 7.97341 130.9 8.68275V0.506747H134.484V20.6667H131.292L130.9 18.6787C130.452 19.2947 129.855 19.8361 129.108 20.3027C128.38 20.7694 127.428 21.0027 126.252 21.0027ZM127.008 17.8667C128.166 17.8667 129.108 17.4841 129.836 16.7187C130.583 15.9347 130.956 14.9361 130.956 13.7227C130.956 12.5094 130.583 11.5201 129.836 10.7547C129.108 9.97075 128.166 9.57875 127.008 9.57875C125.87 9.57875 124.927 9.96141 124.18 10.7267C123.434 11.4921 123.06 12.4814 123.06 13.6947C123.06 14.9081 123.434 15.9067 124.18 16.6907C124.927 17.4747 125.87 17.8667 127.008 17.8667ZM138.666 4.62275C138.013 4.62275 137.471 4.42675 137.042 4.03475C136.631 3.64275 136.426 3.14808 136.426 2.55075C136.426 1.95341 136.631 1.46808 137.042 1.09475C137.471 0.702747 138.013 0.506747 138.666 0.506747C139.319 0.506747 139.851 0.702747 140.262 1.09475C140.691 1.46808 140.906 1.95341 140.906 2.55075C140.906 3.14808 140.691 3.64275 140.262 4.03475C139.851 4.42675 139.319 4.62275 138.666 4.62275ZM136.874 20.6667V6.77875H140.458V20.6667H136.874ZM149.547 21.0027C148.147 21.0027 146.906 20.7041 145.823 20.1067C144.74 19.5094 143.891 18.6694 143.275 17.5867C142.659 16.5041 142.351 15.2534 142.351 13.8347C142.351 12.3974 142.65 11.1187 143.247 9.99875C143.863 8.87875 144.703 8.01075 145.767 7.39475C146.85 6.76008 148.119 6.44275 149.575 6.44275C150.938 6.44275 152.142 6.74141 153.187 7.33875C154.232 7.93608 155.044 8.75741 155.623 9.80275C156.22 10.8294 156.519 11.9774 156.519 13.2467C156.519 13.4521 156.51 13.6667 156.491 13.8907C156.491 14.1147 156.482 14.3481 156.463 14.5907H145.907C145.982 15.6734 146.355 16.5227 147.027 17.1387C147.718 17.7547 148.548 18.0627 149.519 18.0627C150.247 18.0627 150.854 17.9041 151.339 17.5867C151.843 17.2507 152.216 16.8214 152.459 16.2987H156.099C155.838 17.1761 155.399 17.9787 154.783 18.7067C154.186 19.4161 153.439 19.9761 152.543 20.3867C151.666 20.7974 150.667 21.0027 149.547 21.0027ZM149.575 9.35475C148.698 9.35475 147.923 9.60675 147.251 10.1107C146.579 10.5961 146.15 11.3427 145.963 12.3507H152.879C152.823 11.4361 152.487 10.7081 151.871 10.1667C151.255 9.62541 150.49 9.35475 149.575 9.35475ZM158.133 20.6667V6.77875H161.297L161.577 9.13075C162.007 8.30941 162.623 7.65608 163.425 7.17075C164.247 6.68541 165.208 6.44275 166.309 6.44275C168.027 6.44275 169.361 6.98408 170.313 8.06675C171.265 9.14941 171.741 10.7361 171.741 12.8267V20.6667H168.157V13.1627C168.157 11.9681 167.915 11.0534 167.429 10.4187C166.944 9.78408 166.188 9.46675 165.161 9.46675C164.153 9.46675 163.323 9.82141 162.669 10.5307C162.035 11.2401 161.717 12.2294 161.717 13.4987V20.6667H158.133ZM179.956 20.6667C178.5 20.6667 177.334 20.3121 176.456 19.6027C175.579 18.8934 175.14 17.6334 175.14 15.8227V9.77475H172.76V6.77875H175.14L175.56 3.05475H178.724V6.77875H182.476V9.77475H178.724V15.8507C178.724 16.5227 178.864 16.9894 179.144 17.2507C179.443 17.4934 179.947 17.6147 180.656 17.6147H182.392V20.6667H179.956ZM189.509 20.6667V1.06675H193.093L202.305 14.8707V1.06675H205.889V20.6667H202.305L193.093 6.89075V20.6667H189.509ZM208.289 20.6667V1.06675H220.945V3.95075H211.873V9.43875H219.209V12.2667H211.873V20.6667H208.289ZM226.875 20.6667V3.95075H221.163V1.06675H236.199V3.95075H230.459V20.6667H226.875Z" fill="white"/>
</svg>
